# xmcd CD database file
#
# Track frame offsets:
#	150
#	24241
#	44413
#	79391
#	117518
#	146084
#	160682
#	207895
#	222506
#	272606
#	304189
#
# Disc length: 4382 seconds
#
# Revision: 0
# Processed by: cddbd v1.5.2PL0 Copyright (c) Steve Scherf et al.
# Submitted via: CDex 1.70beta2
#
DISCID=9e111c0b
DTITLE=NEW LOOK TRIO  - Atmosphere
DYEAR=1900
DGENRE=Jazz
TTITLE0=I'm old fashioned
TTITLE1=Straight'm up and fly high
TTITLE2=I've got the world on a string
TTITLE3=God bless the child
TTITLE4=Jitterbug waltz
TTITLE5=How high the moon
TTITLE6=Who can I turn to ?
TTITLE7=What is this thing called love ?
TTITLE8=Oh ! lady be good
TTITLE9=How long has this been going on ?
TTITLE10=o close for comfort
EXTD=
EXTT0=
EXTT1=
EXTT2=
EXTT3=
EXTT4=
EXTT5=
EXTT6=
EXTT7=
EXTT8=
EXTT9=
EXTT10=
PLAYORDER=
